<?xml version="1.0" encoding="UTF-8" standalone="no"?>
<svg width="251.531mm" height="25.4mm"
 xmlns="http://www.w3.org/2000/svg" xmlns:xlink="http://www.w3.org/1999/xlink"  version="1.2" baseProfile="tiny">
<title>Qt SVG Document</title>
<desc>Generated with Qt</desc>
<defs>
</defs>
<g fill="none" stroke="black" stroke-width="1" fill-rule="evenodd" stroke-linecap="square" stroke-linejoin="bevel" >

<g fill="none" stroke="#000000" stroke-opacity="1" stroke-width="1" stroke-linecap="square" stroke-linejoin="bevel" transform="matrix(1,0,0,1,0,0)"
font-family="Ubuntu" font-size="11" font-weight="400" font-style="normal" 
>
</g>

<g fill="none" stroke="#000000" stroke-opacity="1" stroke-width="1" stroke-linecap="square" stroke-linejoin="bevel" transform="matrix(1,0,0,1,0,0)"
font-family="Ubuntu" font-size="11" font-weight="400" font-style="normal" 
>
</g>

<g fill="none" stroke="#000000" stroke-opacity="1" stroke-width="1" stroke-linecap="square" stroke-linejoin="bevel" transform="matrix(1.99957,0,0,1.99957,0.00199957,71.9844)"
font-family="Ubuntu" font-size="11" font-weight="400" font-style="normal" 
>
</g>

<g fill="#ffffff" fill-opacity="1" stroke="none" transform="matrix(1.99957,0,0,1.99957,0.00199957,71.9844)"
font-family="Ubuntu" font-size="11" font-weight="400" font-style="normal" 
>
<rect x="-0.001" y="-36" width="356.577" height="36"/>
</g>

<g fill="none" stroke="#000000" stroke-opacity="1" stroke-width="1" stroke-linecap="square" stroke-linejoin="bevel" transform="matrix(1.99957,0,0,1.99957,0.00199957,71.9844)"
font-family="Ubuntu" font-size="11" font-weight="400" font-style="normal" 
>
</g>

<g fill="none" stroke="#000000" stroke-opacity="1" stroke-width="1" stroke-linecap="square" stroke-linejoin="bevel" transform="matrix(1.99957,0,0,1.99957,0.00199957,71.9844)"
font-family="Ubuntu" font-size="11" font-weight="400" font-style="normal" 
>
</g>

<g fill="none" stroke="#000000" stroke-opacity="1" stroke-width="1" stroke-linecap="square" stroke-linejoin="bevel" transform="matrix(1.99957,0,0,1.99957,0.00199957,71.9844)"
font-family="Ubuntu" font-size="11" font-weight="400" font-style="normal" 
>
</g>

<g fill="none" stroke="#000000" stroke-opacity="1" stroke-width="1" stroke-linecap="square" stroke-linejoin="bevel" transform="matrix(1.99957,0,0,1.99957,0.00199957,71.9844)"
font-family="Ubuntu" font-size="11" font-weight="400" font-style="normal" 
>
</g>

<g fill="none" stroke="#000000" stroke-opacity="1" stroke-width="1" stroke-linecap="square" stroke-linejoin="round" transform="matrix(1.99957,0,0,1.99957,0.00199957,71.9844)"
font-family="Ubuntu" font-size="11" font-weight="400" font-style="normal" 
>
<ellipse cx="309.78" cy="-18" rx="46.2964" ry="17.5"/>
</g>

<g fill="none" stroke="#000000" stroke-opacity="1" stroke-width="1" stroke-linecap="square" stroke-linejoin="bevel" transform="matrix(1.99957,0,0,1.99957,0.00199957,71.9844)"
font-family="Ubuntu" font-size="11" font-weight="400" font-style="normal" 
>
</g>

<g fill="none" stroke="#000000" stroke-opacity="1" stroke-width="1" stroke-linecap="square" stroke-linejoin="bevel" transform="matrix(1.99957,0,0,1.99957,565.158,21.9952)"
font-family="Ubuntu" font-size="11" font-weight="400" font-style="normal" 
>
</g>

<g fill="none" stroke="#000000" stroke-opacity="1" stroke-width="1" stroke-linecap="square" stroke-linejoin="bevel" transform="matrix(1.99957,0,0,1.99957,565.158,21.9952)"
font-family="sans" font-size="11" font-weight="100" font-style="normal" 
>
</g>

<g fill="#000000" fill-opacity="1" stroke="#000000" stroke-opacity="1" stroke-width="1" stroke-linecap="square" stroke-linejoin="round" transform="matrix(1.99957,0,0,1.99957,565.158,21.9952)"
font-family="sans" font-size="11" font-weight="100" font-style="normal" 
>
<path vector-effect="none" fill-rule="nonzero" d="M2.79688,2.98438 L3.70313,2.98438 L0.90625,12.0156 L0,12.0156 L2.79688,2.98438 M5.71875,3.28125 L5.71875,4.98438 L7.75,4.98438 L7.75,5.75 L5.71875,5.75 L5.71875,9.01563 C5.71875,9.50521 5.78646,9.82031 5.92188,9.96094 C6.05729,10.1016 6.32813,10.1719 6.73438,10.1719 L7.75,10.1719 L7.75,11 L6.73438,11 C5.97396,11 5.44792,10.8568 5.15625,10.5703 C4.86458,10.2839 4.71875,9.76563 4.71875,9.01563 L4.71875,5.75 L4,5.75 L4,4.98438 L4.71875,4.98438 L4.71875,3.28125 L5.71875,3.28125 M8.95313,8.625 L8.95313,4.98438 L9.9375,4.98438 L9.9375,8.59375 C9.9375,9.15625 10.0495,9.58073 10.2734,9.86719 C10.4974,10.1536 10.8281,10.2969 11.2656,10.2969 C11.8073,10.2969 12.2318,10.1276 12.5391,9.78906 C12.8464,9.45052 13,8.98438 13,8.39063 L13,4.98438 L13.9844,4.98438 L13.9844,11 L13,11 L13,10.0781 C12.7604,10.4427 12.4818,10.7135 12.1641,10.8906 C11.8464,11.0677 11.4792,11.1563 11.0625,11.1563 C10.375,11.1563 9.85156,10.9401 9.49219,10.5078 C9.13281,10.0755 8.95313,9.44792 8.95313,8.625 M19.5,5.90625 C19.3958,5.84375 19.2786,5.79688 19.1484,5.76563 C19.0182,5.73438 18.875,5.71875 18.7188,5.71875 C18.1563,5.71875 17.7266,5.90104 17.4297,6.26563 C17.1328,6.63021 16.9844,7.15104 16.9844,7.82813 L16.9844,11 L15.9844,11 L15.9844,4.98438 L16.9844,4.98438 L16.9844,5.92188 C17.1823,5.55729 17.4479,5.28646 17.7813,5.10938 C18.1146,4.93229 18.5208,4.84375 19,4.84375 C19.0729,4.84375 19.1484,4.84635 19.2266,4.85156 C19.3047,4.85677 19.3958,4.86979 19.5,4.89063 L19.5,5.90625 M20.5313,2.64063 L21.5313,2.64063 L21.5313,11 L20.5313,11 L20.5313,2.64063 M28.7344,7.75 L28.7344,8.23438 L24.1875,8.23438 C24.2292,8.91146 24.4323,9.42708 24.7969,9.78125 C25.1615,10.1354 25.6719,10.3125 26.3281,10.3125 C26.7135,10.3125 27.0833,10.2656 27.4375,10.1719 C27.7917,10.0781 28.1458,9.94271 28.5,9.76563 L28.5,10.6875 C28.1458,10.8438 27.7813,10.9609 27.4063,11.0391 C27.0313,11.1172 26.6563,11.1563 26.2813,11.1563 C25.3125,11.1563 24.5495,10.8776 23.9922,10.3203 C23.4349,9.76302 23.1563,9.00521 23.1563,8.04688 C23.1563,7.06771 23.4219,6.28906 23.9531,5.71094 C24.4844,5.13281 25.2031,4.84375 26.1094,4.84375 C26.9115,4.84375 27.5495,5.10417 28.0234,5.625 C28.4974,6.14583 28.7344,6.85417 28.7344,7.75 M27.7344,7.45313 C27.7344,6.91146 27.5859,6.47917 27.2891,6.15625 C26.9922,5.83333 26.599,5.67188 26.1094,5.67188 C25.5573,5.67188 25.1172,5.82813 24.7891,6.14063 C24.4609,6.45313 24.2708,6.89063 24.2188,7.45313 L27.7344,7.45313 M34.9219,12.8281 L34.9219,13.5938 L29.2031,13.5938 L29.2031,12.8281 L34.9219,12.8281 M39.6875,5.15625 L39.6875,6.09375 C39.4063,5.94792 39.1146,5.84115 38.8125,5.77344 C38.5104,5.70573 38.1979,5.67188 37.875,5.67188 C37.3854,5.67188 37.0182,5.7474 36.7734,5.89844 C36.5286,6.04948 36.4063,6.27083 36.4063,6.5625 C36.4063,6.79167 36.4948,6.97135 36.6719,7.10156 C36.849,7.23177 37.2031,7.35938 37.7344,7.48438 L38.0625,7.5625 C38.7708,7.70833 39.2708,7.91927 39.5625,8.19531 C39.8542,8.47135 40,8.85417 40,9.34375 C40,9.89583 39.7813,10.3359 39.3438,10.6641 C38.9063,10.9922 38.2969,11.1563 37.5156,11.1563 C37.1927,11.1563 36.8568,11.125 36.5078,11.0625 C36.1589,11 35.7917,10.9063 35.4063,10.7813 L35.4063,9.76563 C35.7708,9.95313 36.1302,10.0938 36.4844,10.1875 C36.8385,10.2813 37.1927,10.3281 37.5469,10.3281 C38.0052,10.3281 38.3594,10.2474 38.6094,10.0859 C38.8594,9.92448 38.9844,9.70313 38.9844,9.42188 C38.9844,9.15104 38.8958,8.94271 38.7188,8.79688 C38.5417,8.65104 38.1458,8.51563 37.5313,8.39063 L37.1875,8.29688 C36.5729,8.17188 36.1302,7.97656 35.8594,7.71094 C35.5885,7.44531 35.4531,7.07813 35.4531,6.60938 C35.4531,6.04688 35.6536,5.61198 36.0547,5.30469 C36.4557,4.9974 37.026,4.84375 37.7656,4.84375 C38.1302,4.84375 38.474,4.86979 38.7969,4.92188 C39.1198,4.97396 39.4167,5.05208 39.6875,5.15625 M41.5625,4.98438 L42.5625,4.98438 L42.5625,11 L41.5625,11 L41.5625,4.98438 M41.5625,2.64063 L42.5625,2.64063 L42.5625,3.89063 L41.5625,3.89063 L41.5625,2.64063 M49.2969,6.14063 C49.5469,5.69271 49.8438,5.36458 50.1875,5.15625 C50.5313,4.94792 50.9375,4.84375 51.4063,4.84375 C52.0313,4.84375 52.513,5.0625 52.8516,5.5 C53.1901,5.9375 53.3594,6.5625 53.3594,7.375 L53.3594,11 L52.3594,11 L52.3594,7.40625 C52.3594,6.82292 52.2578,6.39323 52.0547,6.11719 C51.8516,5.84115 51.5417,5.70313 51.125,5.70313 C50.6146,5.70313 50.2109,5.8724 49.9141,6.21094 C49.6172,6.54948 49.4688,7.01042 49.4688,7.59375 L49.4688,11 L48.4688,11 L48.4688,7.40625 C48.4688,6.82292 48.3672,6.39323 48.1641,6.11719 C47.9609,5.84115 47.6458,5.70313 47.2188,5.70313 C46.7188,5.70313 46.3203,5.8724 46.0234,6.21094 C45.7266,6.54948 45.5781,7.01042 45.5781,7.59375 L45.5781,11 L44.5781,11 L44.5781,4.98438 L45.5781,4.98438 L45.5781,5.92188 C45.7969,5.54688 46.0651,5.27344 46.3828,5.10156 C46.7005,4.92969 47.0729,4.84375 47.5,4.84375 C47.9375,4.84375 48.3099,4.95313 48.6172,5.17188 C48.9245,5.39063 49.151,5.71354 49.2969,6.14063 "/>
</g>

<g fill="none" stroke="#000000" stroke-opacity="1" stroke-width="1" stroke-linecap="square" stroke-linejoin="bevel" transform="matrix(1.99957,0,0,1.99957,565.158,21.9952)"
font-family="sans" font-size="11" font-weight="100" font-style="normal" 
>
</g>

<g fill="none" stroke="#000000" stroke-opacity="1" stroke-width="1" stroke-linecap="square" stroke-linejoin="bevel" transform="matrix(1.99957,0,0,1.99957,565.158,21.9952)"
font-family="Ubuntu" font-size="11" font-weight="400" font-style="normal" 
>
</g>

<g fill="none" stroke="#000000" stroke-opacity="1" stroke-width="1" stroke-linecap="square" stroke-linejoin="bevel" transform="matrix(1.99957,0,0,1.99957,0.00199957,71.9844)"
font-family="Ubuntu" font-size="11" font-weight="400" font-style="normal" 
>
</g>

<g fill="none" stroke="#000000" stroke-opacity="1" stroke-width="1" stroke-linecap="square" stroke-linejoin="bevel" transform="matrix(1.99957,0,0,1.99957,0.00199957,71.9844)"
font-family="Ubuntu" font-size="11" font-weight="400" font-style="normal" 
>
</g>

<g fill="none" stroke="#000000" stroke-opacity="1" stroke-width="1" stroke-linecap="square" stroke-linejoin="bevel" transform="matrix(1.99957,0,0,1.99957,0.00199957,71.9844)"
font-family="Ubuntu" font-size="11" font-weight="400" font-style="normal" 
>
</g>

<g fill="none" stroke="#000000" stroke-opacity="1" stroke-width="1" stroke-linecap="square" stroke-linejoin="round" transform="matrix(1.99957,0,0,1.99957,0.00199957,71.9844)"
font-family="Ubuntu" font-size="11" font-weight="400" font-style="normal" 
>
<ellipse cx="77.993" cy="-18" rx="77.494" ry="17.5"/>
</g>

<g fill="none" stroke="#000000" stroke-opacity="1" stroke-width="1" stroke-linecap="square" stroke-linejoin="bevel" transform="matrix(1.99957,0,0,1.99957,0.00199957,71.9844)"
font-family="Ubuntu" font-size="11" font-weight="400" font-style="normal" 
>
</g>

<g fill="none" stroke="#000000" stroke-opacity="1" stroke-width="1" stroke-linecap="square" stroke-linejoin="bevel" transform="matrix(1.99957,0,0,1.99957,50.1802,21.9952)"
font-family="Ubuntu" font-size="11" font-weight="400" font-style="normal" 
>
</g>

<g fill="none" stroke="#000000" stroke-opacity="1" stroke-width="1" stroke-linecap="square" stroke-linejoin="bevel" transform="matrix(1.99957,0,0,1.99957,50.1802,21.9952)"
font-family="sans" font-size="11" font-weight="100" font-style="normal" 
>
</g>

<g fill="#000000" fill-opacity="1" stroke="#000000" stroke-opacity="1" stroke-width="1" stroke-linecap="square" stroke-linejoin="round" transform="matrix(1.99957,0,0,1.99957,50.1802,21.9952)"
font-family="sans" font-size="11" font-weight="100" font-style="normal" 
>
<path vector-effect="none" fill-rule="nonzero" d="M2.79688,2.98438 L3.70313,2.98438 L0.90625,12.0156 L0,12.0156 L2.79688,2.98438 M4.70313,2.64063 L5.70313,2.64063 L5.70313,7.57813 L8.64063,4.98438 L9.90625,4.98438 L6.71875,7.79688 L10.0469,11 L8.75,11 L5.70313,8.0625 L5.70313,11 L4.70313,11 L4.70313,2.64063 M16.25,7.75 L16.25,8.23438 L11.7031,8.23438 C11.7448,8.91146 11.9479,9.42708 12.3125,9.78125 C12.6771,10.1354 13.1875,10.3125 13.8438,10.3125 C14.2292,10.3125 14.599,10.2656 14.9531,10.1719 C15.3073,10.0781 15.6615,9.94271 16.0156,9.76563 L16.0156,10.6875 C15.6615,10.8438 15.2969,10.9609 14.9219,11.0391 C14.5469,11.1172 14.1719,11.1563 13.7969,11.1563 C12.8281,11.1563 12.0651,10.8776 11.5078,10.3203 C10.9505,9.76302 10.6719,9.00521 10.6719,8.04688 C10.6719,7.06771 10.9375,6.28906 11.4688,5.71094 C12,5.13281 12.7188,4.84375 13.625,4.84375 C14.4271,4.84375 15.0651,5.10417 15.5391,5.625 C16.013,6.14583 16.25,6.85417 16.25,7.75 M15.25,7.45313 C15.25,6.91146 15.1016,6.47917 14.8047,6.15625 C14.5078,5.83333 14.1146,5.67188 13.625,5.67188 C13.0729,5.67188 12.6328,5.82813 12.3047,6.14063 C11.9766,6.45313 11.7865,6.89063 11.7344,7.45313 L15.25,7.45313 M20.375,11.5625 C20.0938,12.2813 19.8203,12.7474 19.5547,12.9609 C19.2891,13.1745 18.9323,13.2813 18.4844,13.2813 L17.7031,13.2813 L17.7031,12.4688 L18.2813,12.4688 C18.5521,12.4688 18.763,12.4036 18.9141,12.2734 C19.0651,12.1432 19.2292,11.8385 19.4063,11.3594 L19.5938,10.9063 L17.1563,4.98438 L18.2031,4.98438 L20.0781,9.6875 L21.9688,4.98438 L23.0156,4.98438 L20.375,11.5625 M28.6875,8 C28.6875,7.27083 28.5365,6.70052 28.2344,6.28906 C27.9323,5.8776 27.5208,5.67188 27,5.67188 C26.4792,5.67188 26.0703,5.8776 25.7734,6.28906 C25.4766,6.70052 25.3281,7.27083 25.3281,8 C25.3281,8.72917 25.4766,9.29948 25.7734,9.71094 C26.0703,10.1224 26.4792,10.3281 27,10.3281 C27.5208,10.3281 27.9323,10.1224 28.2344,9.71094 C28.5365,9.29948 28.6875,8.72917 28.6875,8 M25.3281,5.89063 C25.526,5.53646 25.7839,5.27344 26.1016,5.10156 C26.4193,4.92969 26.8021,4.84375 27.25,4.84375 C27.9792,4.84375 28.5703,5.13281 29.0234,5.71094 C29.4766,6.28906 29.7031,7.05208 29.7031,8 C29.7031,8.94792 29.4766,9.71094 29.0234,10.2891 C28.5703,10.8672 27.9792,11.1563 27.25,11.1563 C26.8021,11.1563 26.4193,11.0703 26.1016,10.8984 C25.7839,10.7266 25.526,10.4583 25.3281,10.0938 L25.3281,11 L24.3281,11 L24.3281,2.64063 L25.3281,2.64063 L25.3281,5.89063 M33.6719,5.67188 C33.1406,5.67188 32.7214,5.88021 32.4141,6.29688 C32.1068,6.71354 31.9531,7.28125 31.9531,8 C31.9531,8.71875 32.1042,9.28385 32.4063,9.69531 C32.7083,10.1068 33.1302,10.3125 33.6719,10.3125 C34.1927,10.3125 34.6068,10.1068 34.9141,9.69531 C35.2214,9.28385 35.375,8.71875 35.375,8 C35.375,7.28125 35.2214,6.71354 34.9141,6.29688 C34.6068,5.88021 34.1927,5.67188 33.6719,5.67188 M33.6719,4.84375 C34.526,4.84375 35.1979,5.1224 35.6875,5.67969 C36.1771,6.23698 36.4219,7.01042 36.4219,8 C36.4219,8.97917 36.1771,9.75 35.6875,10.3125 C35.1979,10.875 34.526,11.1563 33.6719,11.1563 C32.8073,11.1563 32.1302,10.875 31.6406,10.3125 C31.151,9.75 30.9063,8.97917 30.9063,8 C30.9063,7.01042 31.151,6.23698 31.6406,5.67969 C32.1302,5.1224 32.8073,4.84375 33.6719,4.84375 M40.7813,7.96875 C39.9896,7.96875 39.4401,8.0625 39.1328,8.25 C38.8255,8.4375 38.6719,8.75 38.6719,9.1875 C38.6719,9.53125 38.7865,9.80729 39.0156,10.0156 C39.2448,10.224 39.5573,10.3281 39.9531,10.3281 C40.5052,10.3281 40.9453,10.1328 41.2734,9.74219 C41.6016,9.35156 41.7656,8.83854 41.7656,8.20313 L41.7656,7.96875 L40.7813,7.96875 M42.75,7.5625 L42.75,11 L41.7656,11 L41.7656,10.0938 C41.5469,10.4583 41.2682,10.7266 40.9297,10.8984 C40.5911,11.0703 40.1771,11.1563 39.6875,11.1563 C39.0729,11.1563 38.5833,10.9844 38.2188,10.6406 C37.8542,10.2969 37.6719,9.83333 37.6719,9.25 C37.6719,8.57292 37.8984,8.0625 38.3516,7.71875 C38.8047,7.375 39.4844,7.20313 40.3906,7.20313 L41.7656,7.20313 L41.7656,7.10938 C41.7656,6.65104 41.6172,6.29688 41.3203,6.04688 C41.0234,5.79688 40.6042,5.67188 40.0625,5.67188 C39.7188,5.67188 39.3828,5.71354 39.0547,5.79688 C38.7266,5.88021 38.4115,6.00521 38.1094,6.17188 L38.1094,5.26563 C38.474,5.11979 38.8281,5.01302 39.1719,4.94531 C39.5156,4.8776 39.8438,4.84375 40.1563,4.84375 C41.0313,4.84375 41.6823,5.06771 42.1094,5.51563 C42.5365,5.96354 42.75,6.64583 42.75,7.5625 M48.2656,5.90625 C48.1615,5.84375 48.0443,5.79688 47.9141,5.76563 C47.7839,5.73438 47.6406,5.71875 47.4844,5.71875 C46.9219,5.71875 46.4922,5.90104 46.1953,6.26563 C45.8984,6.63021 45.75,7.15104 45.75,7.82813 L45.75,11 L44.75,11 L44.75,4.98438 L45.75,4.98438 L45.75,5.92188 C45.9479,5.55729 46.2135,5.28646 46.5469,5.10938 C46.8802,4.93229 47.2865,4.84375 47.7656,4.84375 C47.8385,4.84375 47.9141,4.84635 47.9922,4.85156 C48.0703,4.85677 48.1615,4.86979 48.2656,4.89063 L48.2656,5.90625 M53.2656,5.89063 L53.2656,2.64063 L54.25,2.64063 L54.25,11 L53.2656,11 L53.2656,10.0938 C53.0573,10.4583 52.7943,10.7266 52.4766,10.8984 C52.1589,11.0703 51.776,11.1563 51.3281,11.1563 C50.6094,11.1563 50.0208,10.8672 49.5625,10.2891 C49.1042,9.71094 48.875,8.94792 48.875,8 C48.875,7.05208 49.1042,6.28906 49.5625,5.71094 C50.0208,5.13281 50.6094,4.84375 51.3281,4.84375 C51.776,4.84375 52.1589,4.92969 52.4766,5.10156 C52.7943,5.27344 53.0573,5.53646 53.2656,5.89063 M49.8906,8 C49.8906,8.72917 50.0417,9.29948 50.3438,9.71094 C50.6458,10.1224 51.0573,10.3281 51.5781,10.3281 C52.099,10.3281 52.5104,10.1224 52.8125,9.71094 C53.1146,9.29948 53.2656,8.72917 53.2656,8 C53.2656,7.27083 53.1146,6.70052 52.8125,6.28906 C52.5104,5.8776 52.099,5.67188 51.5781,5.67188 C51.0573,5.67188 50.6458,5.8776 50.3438,6.28906 C50.0417,6.70052 49.8906,7.27083 49.8906,8 M60.8438,12.8281 L60.8438,13.5938 L55.125,13.5938 L55.125,12.8281 L60.8438,12.8281 M65.6094,5.15625 L65.6094,6.09375 C65.3281,5.94792 65.0365,5.84115 64.7344,5.77344 C64.4323,5.70573 64.1198,5.67188 63.7969,5.67188 C63.3073,5.67188 62.9401,5.7474 62.6953,5.89844 C62.4505,6.04948 62.3281,6.27083 62.3281,6.5625 C62.3281,6.79167 62.4167,6.97135 62.5938,7.10156 C62.7708,7.23177 63.125,7.35938 63.6563,7.48438 L63.9844,7.5625 C64.6927,7.70833 65.1927,7.91927 65.4844,8.19531 C65.776,8.47135 65.9219,8.85417 65.9219,9.34375 C65.9219,9.89583 65.7031,10.3359 65.2656,10.6641 C64.8281,10.9922 64.2188,11.1563 63.4375,11.1563 C63.1146,11.1563 62.7786,11.125 62.4297,11.0625 C62.0807,11 61.7135,10.9063 61.3281,10.7813 L61.3281,9.76563 C61.6927,9.95313 62.0521,10.0938 62.4063,10.1875 C62.7604,10.2813 63.1146,10.3281 63.4688,10.3281 C63.9271,10.3281 64.2813,10.2474 64.5313,10.0859 C64.7813,9.92448 64.9063,9.70313 64.9063,9.42188 C64.9063,9.15104 64.8177,8.94271 64.6406,8.79688 C64.4635,8.65104 64.0677,8.51563 63.4531,8.39063 L63.1094,8.29688 C62.4948,8.17188 62.0521,7.97656 61.7813,7.71094 C61.5104,7.44531 61.375,7.07813 61.375,6.60938 C61.375,6.04688 61.5755,5.61198 61.9766,5.30469 C62.3776,4.9974 62.9479,4.84375 63.6875,4.84375 C64.0521,4.84375 64.3958,4.86979 64.7188,4.92188 C65.0417,4.97396 65.3385,5.05208 65.6094,5.15625 M68.4688,3.28125 L68.4688,4.98438 L70.5,4.98438 L70.5,5.75 L68.4688,5.75 L68.4688,9.01563 C68.4688,9.50521 68.5365,9.82031 68.6719,9.96094 C68.8073,10.1016 69.0781,10.1719 69.4844,10.1719 L70.5,10.1719 L70.5,11 L69.4844,11 C68.724,11 68.1979,10.8568 67.9063,10.5703 C67.6146,10.2839 67.4688,9.76563 67.4688,9.01563 L67.4688,5.75 L66.75,5.75 L66.75,4.98438 L67.4688,4.98438 L67.4688,3.28125 L68.4688,3.28125 M76.9531,7.75 L76.9531,8.23438 L72.4063,8.23438 C72.4479,8.91146 72.651,9.42708 73.0156,9.78125 C73.3802,10.1354 73.8906,10.3125 74.5469,10.3125 C74.9323,10.3125 75.3021,10.2656 75.6563,10.1719 C76.0104,10.0781 76.3646,9.94271 76.7188,9.76563 L76.7188,10.6875 C76.3646,10.8438 76,10.9609 75.625,11.0391 C75.25,11.1172 74.875,11.1563 74.5,11.1563 C73.5313,11.1563 72.7682,10.8776 72.2109,10.3203 C71.6536,9.76302 71.375,9.00521 71.375,8.04688 C71.375,7.06771 71.6406,6.28906 72.1719,5.71094 C72.7031,5.13281 73.4219,4.84375 74.3281,4.84375 C75.1302,4.84375 75.7682,5.10417 76.2422,5.625 C76.7161,6.14583 76.9531,6.85417 76.9531,7.75 M75.9531,7.45313 C75.9531,6.91146 75.8047,6.47917 75.5078,6.15625 C75.2109,5.83333 74.8177,5.67188 74.3281,5.67188 C73.776,5.67188 73.3359,5.82813 73.0078,6.14063 C72.6797,6.45313 72.4896,6.89063 72.4375,7.45313 L75.9531,7.45313 M83.7188,7.75 L83.7188,8.23438 L79.1719,8.23438 C79.2135,8.91146 79.4167,9.42708 79.7813,9.78125 C80.1458,10.1354 80.6563,10.3125 81.3125,10.3125 C81.6979,10.3125 82.0677,10.2656 82.4219,10.1719 C82.776,10.0781 83.1302,9.94271 83.4844,9.76563 L83.4844,10.6875 C83.1302,10.8438 82.7656,10.9609 82.3906,11.0391 C82.0156,11.1172 81.6406,11.1563 81.2656,11.1563 C80.2969,11.1563 79.5339,10.8776 78.9766,10.3203 C78.4193,9.76302 78.1406,9.00521 78.1406,8.04688 C78.1406,7.06771 78.4063,6.28906 78.9375,5.71094 C79.4688,5.13281 80.1875,4.84375 81.0938,4.84375 C81.8958,4.84375 82.5339,5.10417 83.0078,5.625 C83.4818,6.14583 83.7188,6.85417 83.7188,7.75 M82.7188,7.45313 C82.7188,6.91146 82.5703,6.47917 82.2734,6.15625 C81.9766,5.83333 81.5833,5.67188 81.0938,5.67188 C80.5417,5.67188 80.1016,5.82813 79.7734,6.14063 C79.4453,6.45313 79.2552,6.89063 79.2031,7.45313 L82.7188,7.45313 M88.8125,5.90625 C88.7083,5.84375 88.5911,5.79688 88.4609,5.76563 C88.3307,5.73438 88.1875,5.71875 88.0313,5.71875 C87.4688,5.71875 87.0391,5.90104 86.7422,6.26563 C86.4453,6.63021 86.2969,7.15104 86.2969,7.82813 L86.2969,11 L85.2969,11 L85.2969,4.98438 L86.2969,4.98438 L86.2969,5.92188 C86.4948,5.55729 86.7604,5.28646 87.0938,5.10938 C87.4271,4.93229 87.8333,4.84375 88.3125,4.84375 C88.3854,4.84375 88.4609,4.84635 88.5391,4.85156 C88.6172,4.85677 88.7083,4.86979 88.8125,4.89063 L88.8125,5.90625 M89.8438,4.98438 L90.8438,4.98438 L90.8438,11 L89.8438,11 L89.8438,4.98438 M89.8438,2.64063 L90.8438,2.64063 L90.8438,3.89063 L89.8438,3.89063 L89.8438,2.64063 M97.8906,7.375 L97.8906,11 L96.9063,11 L96.9063,7.40625 C96.9063,6.83333 96.7969,6.40625 96.5781,6.125 C96.3594,5.84375 96.026,5.70313 95.5781,5.70313 C95.0469,5.70313 94.6276,5.8724 94.3203,6.21094 C94.013,6.54948 93.8594,7.01042 93.8594,7.59375 L93.8594,11 L92.8594,11 L92.8594,4.98438 L93.8594,4.98438 L93.8594,5.92188 C94.0885,5.55729 94.3646,5.28646 94.6875,5.10938 C95.0104,4.93229 95.3802,4.84375 95.7969,4.84375 C96.4844,4.84375 97.0052,5.05729 97.3594,5.48438 C97.7135,5.91146 97.8906,6.54167 97.8906,7.375 M103.828,7.92188 C103.828,7.20313 103.68,6.64844 103.383,6.25781 C103.086,5.86719 102.672,5.67188 102.141,5.67188 C101.609,5.67188 101.195,5.86719 100.898,6.25781 C100.602,6.64844 100.453,7.20313 100.453,7.92188 C100.453,8.63021 100.602,9.18229 100.898,9.57813 C101.195,9.97396 101.609,10.1719 102.141,10.1719 C102.672,10.1719 103.086,9.97396 103.383,9.57813 C103.68,9.18229 103.828,8.63021 103.828,7.92188 M104.813,10.25 C104.813,11.2813 104.586,12.0443 104.133,12.5391 C103.68,13.0339 102.984,13.2813 102.047,13.2813 C101.693,13.2813 101.362,13.2552 101.055,13.2031 C100.747,13.151 100.448,13.0729 100.156,12.9688 L100.156,12.0156 C100.448,12.1719 100.734,12.2865 101.016,12.3594 C101.297,12.4323 101.589,12.4688 101.891,12.4688 C102.536,12.4688 103.021,12.2995 103.344,11.9609 C103.667,11.6224 103.828,11.1146 103.828,10.4375 L103.828,9.9375 C103.62,10.2917 103.357,10.5573 103.039,10.7344 C102.721,10.9115 102.339,11 101.891,11 C101.151,11 100.557,10.7188 100.109,10.1563 C99.6615,9.59375 99.4375,8.84896 99.4375,7.92188 C99.4375,6.99479 99.6615,6.25 100.109,5.6875 C100.557,5.125 101.151,4.84375 101.891,4.84375 C102.339,4.84375 102.721,4.92969 103.039,5.10156 C103.357,5.27344 103.62,5.53646 103.828,5.89063 L103.828,4.98438 L104.813,4.98438 L104.813,10.25"/>
</g>

<g fill="none" stroke="#000000" stroke-opacity="1" stroke-width="1" stroke-linecap="square" stroke-linejoin="bevel" transform="matrix(1.99957,0,0,1.99957,50.1802,21.9952)"
font-family="sans" font-size="11" font-weight="100" font-style="normal" 
>
</g>

<g fill="none" stroke="#000000" stroke-opacity="1" stroke-width="1" stroke-linecap="square" stroke-linejoin="bevel" transform="matrix(1.99957,0,0,1.99957,50.1802,21.9952)"
font-family="Ubuntu" font-size="11" font-weight="400" font-style="normal" 
>
</g>

<g fill="none" stroke="#000000" stroke-opacity="1" stroke-width="1" stroke-linecap="square" stroke-linejoin="bevel" transform="matrix(1.99957,0,0,1.99957,0.00199957,71.9844)"
font-family="Ubuntu" font-size="11" font-weight="400" font-style="normal" 
>
</g>

<g fill="none" stroke="#000000" stroke-opacity="1" stroke-width="1" stroke-linecap="square" stroke-linejoin="bevel" transform="matrix(1.99957,0,0,1.99957,0.00199957,71.9844)"
font-family="Ubuntu" font-size="11" font-weight="400" font-style="normal" 
>
</g>

<g fill="none" stroke="#000000" stroke-opacity="1" stroke-width="1" stroke-linecap="square" stroke-linejoin="bevel" transform="matrix(1.99957,0,0,1.99957,0.00199957,71.9844)"
font-family="Ubuntu" font-size="11" font-weight="400" font-style="normal" 
>
</g>

<g fill="none" stroke="#000000" stroke-opacity="1" stroke-width="1" stroke-linecap="square" stroke-linejoin="round" transform="matrix(1.99957,0,0,1.99957,0.00199957,71.9844)"
font-family="Ubuntu" font-size="11" font-weight="400" font-style="normal" 
>
<path vector-effect="none" fill-rule="evenodd" d="M156.14,-18 C187.63,-18 223.29,-18 252.32,-18 "/>
</g>

<g fill="none" stroke="#000000" stroke-opacity="1" stroke-width="1" stroke-linecap="square" stroke-linejoin="bevel" transform="matrix(1.99957,0,0,1.99957,0.00199957,71.9844)"
font-family="Ubuntu" font-size="11" font-weight="400" font-style="normal" 
>
</g>

<g fill="none" stroke="#000000" stroke-opacity="1" stroke-width="1" stroke-linecap="square" stroke-linejoin="bevel" transform="matrix(1.99957,0,0,1.99957,329.067,6.99848)"
font-family="Ubuntu" font-size="11" font-weight="400" font-style="normal" 
>
</g>

<g fill="none" stroke="#000000" stroke-opacity="1" stroke-width="1" stroke-linecap="square" stroke-linejoin="bevel" transform="matrix(1.99957,0,0,1.99957,329.067,6.99848)"
font-family="sans" font-size="11" font-weight="100" font-style="normal" 
>
</g>

<g fill="#000000" fill-opacity="1" stroke="#000000" stroke-opacity="1" stroke-width="1" stroke-linecap="square" stroke-linejoin="round" transform="matrix(1.99957,0,0,1.99957,329.067,6.99848)"
font-family="sans" font-size="11" font-weight="100" font-style="normal" 
>
<path vector-effect="none" fill-rule="nonzero" d="M2.79688,2.98438 L3.70313,2.98438 L0.90625,12.0156 L0,12.0156 L2.79688,2.98438 M5.71875,3.28125 L5.71875,4.98438 L7.75,4.98438 L7.75,5.75 L5.71875,5.75 L5.71875,9.01563 C5.71875,9.50521 5.78646,9.82031 5.92188,9.96094 C6.05729,10.1016 6.32813,10.1719 6.73438,10.1719 L7.75,10.1719 L7.75,11 L6.73438,11 C5.97396,11 5.44792,10.8568 5.15625,10.5703 C4.86458,10.2839 4.71875,9.76563 4.71875,9.01563 L4.71875,5.75 L4,5.75 L4,4.98438 L4.71875,4.98438 L4.71875,3.28125 L5.71875,3.28125 M8.95313,8.625 L8.95313,4.98438 L9.9375,4.98438 L9.9375,8.59375 C9.9375,9.15625 10.0495,9.58073 10.2734,9.86719 C10.4974,10.1536 10.8281,10.2969 11.2656,10.2969 C11.8073,10.2969 12.2318,10.1276 12.5391,9.78906 C12.8464,9.45052 13,8.98438 13,8.39063 L13,4.98438 L13.9844,4.98438 L13.9844,11 L13,11 L13,10.0781 C12.7604,10.4427 12.4818,10.7135 12.1641,10.8906 C11.8464,11.0677 11.4792,11.1563 11.0625,11.1563 C10.375,11.1563 9.85156,10.9401 9.49219,10.5078 C9.13281,10.0755 8.95313,9.44792 8.95313,8.625 M19.5,5.90625 C19.3958,5.84375 19.2786,5.79688 19.1484,5.76563 C19.0182,5.73438 18.875,5.71875 18.7188,5.71875 C18.1563,5.71875 17.7266,5.90104 17.4297,6.26563 C17.1328,6.63021 16.9844,7.15104 16.9844,7.82813 L16.9844,11 L15.9844,11 L15.9844,4.98438 L16.9844,4.98438 L16.9844,5.92188 C17.1823,5.55729 17.4479,5.28646 17.7813,5.10938 C18.1146,4.93229 18.5208,4.84375 19,4.84375 C19.0729,4.84375 19.1484,4.84635 19.2266,4.85156 C19.3047,4.85677 19.3958,4.86979 19.5,4.89063 L19.5,5.90625 M21.5156,3.28125 L21.5156,4.98438 L23.5469,4.98438 L23.5469,5.75 L21.5156,5.75 L21.5156,9.01563 C21.5156,9.50521 21.5833,9.82031 21.7188,9.96094 C21.8542,10.1016 22.125,10.1719 22.5313,10.1719 L23.5469,10.1719 L23.5469,11 L22.5313,11 C21.7708,11 21.2448,10.8568 20.9531,10.5703 C20.6615,10.2839 20.5156,9.76563 20.5156,9.01563 L20.5156,5.75 L19.7969,5.75 L19.7969,4.98438 L20.5156,4.98438 L20.5156,3.28125 L21.5156,3.28125 M24.8438,2.64063 L25.8438,2.64063 L25.8438,11 L24.8438,11 L24.8438,2.64063 M33.0469,7.75 L33.0469,8.23438 L28.5,8.23438 C28.5417,8.91146 28.7448,9.42708 29.1094,9.78125 C29.474,10.1354 29.9844,10.3125 30.6406,10.3125 C31.026,10.3125 31.3958,10.2656 31.75,10.1719 C32.1042,10.0781 32.4583,9.94271 32.8125,9.76563 L32.8125,10.6875 C32.4583,10.8438 32.0938,10.9609 31.7188,11.0391 C31.3438,11.1172 30.9688,11.1563 30.5938,11.1563 C29.625,11.1563 28.862,10.8776 28.3047,10.3203 C27.7474,9.76302 27.4688,9.00521 27.4688,8.04688 C27.4688,7.06771 27.7344,6.28906 28.2656,5.71094 C28.7969,5.13281 29.5156,4.84375 30.4219,4.84375 C31.224,4.84375 31.862,5.10417 32.3359,5.625 C32.8099,6.14583 33.0469,6.85417 33.0469,7.75 M32.0469,7.45313 C32.0469,6.91146 31.8984,6.47917 31.6016,6.15625 C31.3047,5.83333 30.9115,5.67188 30.4219,5.67188 C29.8698,5.67188 29.4297,5.82813 29.1016,6.14063 C28.7734,6.45313 28.5833,6.89063 28.5313,7.45313 L32.0469,7.45313 M34.9844,10.0938 L36.7656,10.0938 L36.7656,3.96875 L34.8281,4.35938 L34.8281,3.375 L36.75,2.98438 L37.8438,2.98438 L37.8438,10.0938 L39.6094,10.0938 L39.6094,11 L34.9844,11 L34.9844,10.0938 M43.4063,2.98438 L44.3125,2.98438 L41.5156,12.0156 L40.6094,12.0156 L43.4063,2.98438 M49.6719,5.21875 L49.6719,6.14063 C49.401,5.98438 49.125,5.86719 48.8438,5.78906 C48.5625,5.71094 48.276,5.67188 47.9844,5.67188 C47.349,5.67188 46.8542,5.875 46.5,6.28125 C46.1458,6.6875 45.9688,7.26042 45.9688,8 C45.9688,8.72917 46.1458,9.29688 46.5,9.70313 C46.8542,10.1094 47.349,10.3125 47.9844,10.3125 C48.276,10.3125 48.5625,10.276 48.8438,10.2031 C49.125,10.1302 49.401,10.0156 49.6719,9.85938 L49.6719,10.7656 C49.401,10.901 49.1172,11 48.8203,11.0625 C48.5234,11.125 48.2083,11.1563 47.875,11.1563 C46.9688,11.1563 46.25,10.8724 45.7188,10.3047 C45.1875,9.73698 44.9219,8.96875 44.9219,8 C44.9219,7.02083 45.1901,6.25 45.7266,5.6875 C46.263,5.125 47,4.84375 47.9375,4.84375 C48.25,4.84375 48.5495,4.875 48.8359,4.9375 C49.1224,5 49.401,5.09375 49.6719,5.21875 M56.0781,6.14063 C56.3281,5.69271 56.625,5.36458 56.9688,5.15625 C57.3125,4.94792 57.7188,4.84375 58.1875,4.84375 C58.8125,4.84375 59.2943,5.0625 59.6328,5.5 C59.9714,5.9375 60.1406,6.5625 60.1406,7.375 L60.1406,11 L59.1406,11 L59.1406,7.40625 C59.1406,6.82292 59.0391,6.39323 58.8359,6.11719 C58.6328,5.84115 58.3229,5.70313 57.9063,5.70313 C57.3958,5.70313 56.9922,5.8724 56.6953,6.21094 C56.3984,6.54948 56.25,7.01042 56.25,7.59375 L56.25,11 L55.25,11 L55.25,7.40625 C55.25,6.82292 55.1484,6.39323 54.9453,6.11719 C54.7422,5.84115 54.4271,5.70313 54,5.70313 C53.5,5.70313 53.1016,5.8724 52.8047,6.21094 C52.5078,6.54948 52.3594,7.01042 52.3594,7.59375 L52.3594,11 L51.3594,11 L51.3594,4.98438 L52.3594,4.98438 L52.3594,5.92188 C52.5781,5.54688 52.8464,5.27344 53.1641,5.10156 C53.4818,4.92969 53.8542,4.84375 54.2813,4.84375 C54.7188,4.84375 55.0911,4.95313 55.3984,5.17188 C55.7057,5.39063 55.9323,5.71354 56.0781,6.14063 M66.0625,5.89063 L66.0625,2.64063 L67.0469,2.64063 L67.0469,11 L66.0625,11 L66.0625,10.0938 C65.8542,10.4583 65.5911,10.7266 65.2734,10.8984 C64.9557,11.0703 64.5729,11.1563 64.125,11.1563 C63.4063,11.1563 62.8177,10.8672 62.3594,10.2891 C61.901,9.71094 61.6719,8.94792 61.6719,8 C61.6719,7.05208 61.901,6.28906 62.3594,5.71094 C62.8177,5.13281 63.4063,4.84375 64.125,4.84375 C64.5729,4.84375 64.9557,4.92969 65.2734,5.10156 C65.5911,5.27344 65.8542,5.53646 66.0625,5.89063 M62.6875,8 C62.6875,8.72917 62.8385,9.29948 63.1406,9.71094 C63.4427,10.1224 63.8542,10.3281 64.375,10.3281 C64.8958,10.3281 65.3073,10.1224 65.6094,9.71094 C65.9115,9.29948 66.0625,8.72917 66.0625,8 C66.0625,7.27083 65.9115,6.70052 65.6094,6.28906 C65.3073,5.8776 64.8958,5.67188 64.375,5.67188 C63.8542,5.67188 63.4427,5.8776 63.1406,6.28906 C62.8385,6.70052 62.6875,7.27083 62.6875,8 M73.6406,12.8281 L73.6406,13.5938 L67.9219,13.5938 L67.9219,12.8281 L73.6406,12.8281 M73.8594,4.98438 L74.9063,4.98438 L76.7813,10.0313 L78.6719,4.98438 L79.7188,4.98438 L77.4531,11 L76.1094,11 L73.8594,4.98438 M86.2188,7.75 L86.2188,8.23438 L81.6719,8.23438 C81.7135,8.91146 81.9167,9.42708 82.2813,9.78125 C82.6458,10.1354 83.1563,10.3125 83.8125,10.3125 C84.1979,10.3125 84.5677,10.2656 84.9219,10.1719 C85.276,10.0781 85.6302,9.94271 85.9844,9.76563 L85.9844,10.6875 C85.6302,10.8438 85.2656,10.9609 84.8906,11.0391 C84.5156,11.1172 84.1406,11.1563 83.7656,11.1563 C82.7969,11.1563 82.0339,10.8776 81.4766,10.3203 C80.9193,9.76302 80.6406,9.00521 80.6406,8.04688 C80.6406,7.06771 80.9063,6.28906 81.4375,5.71094 C81.9688,5.13281 82.6875,4.84375 83.5938,4.84375 C84.3958,4.84375 85.0339,5.10417 85.5078,5.625 C85.9818,6.14583 86.2188,6.85417 86.2188,7.75 M85.2188,7.45313 C85.2188,6.91146 85.0703,6.47917 84.7734,6.15625 C84.4766,5.83333 84.0833,5.67188 83.5938,5.67188 C83.0417,5.67188 82.6016,5.82813 82.2734,6.14063 C81.9453,6.45313 81.7552,6.89063 81.7031,7.45313 L85.2188,7.45313 M87.8281,2.64063 L88.8281,2.64063 L88.8281,11 L87.8281,11 L87.8281,2.64063"/>
</g>

<g fill="none" stroke="#000000" stroke-opacity="1" stroke-width="1" stroke-linecap="square" stroke-linejoin="bevel" transform="matrix(1.99957,0,0,1.99957,329.067,6.99848)"
font-family="sans" font-size="11" font-weight="100" font-style="normal" 
>
</g>

<g fill="none" stroke="#000000" stroke-opacity="1" stroke-width="1" stroke-linecap="square" stroke-linejoin="bevel" transform="matrix(1.99957,0,0,1.99957,329.067,6.99848)"
font-family="Ubuntu" font-size="11" font-weight="400" font-style="normal" 
>
</g>

<g fill="none" stroke="#000000" stroke-opacity="1" stroke-width="1" stroke-linecap="square" stroke-linejoin="bevel" transform="matrix(1.99957,0,0,1.99957,0.00199957,71.9844)"
font-family="Ubuntu" font-size="11" font-weight="400" font-style="normal" 
>
</g>

<g fill="#000000" fill-opacity="1" stroke="#000000" stroke-opacity="1" stroke-width="1" stroke-linecap="square" stroke-linejoin="round" transform="matrix(1.99957,0,0,1.99957,0.00199957,71.9844)"
font-family="Ubuntu" font-size="11" font-weight="400" font-style="normal" 
>
<path vector-effect="none" fill-rule="evenodd" d="M252.32,-18 L252.32,-14.367 L262.7,-18 L252.32,-21.633 L252.32,-18"/>
</g>

<g fill="none" stroke="#000000" stroke-opacity="1" stroke-width="1" stroke-linecap="square" stroke-linejoin="bevel" transform="matrix(1.99957,0,0,1.99957,0.00199957,71.9844)"
font-family="Ubuntu" font-size="11" font-weight="400" font-style="normal" 
>
</g>

<g fill="none" stroke="#000000" stroke-opacity="1" stroke-width="1" stroke-linecap="square" stroke-linejoin="bevel" transform="matrix(1,0,0,1,0,0)"
font-family="Ubuntu" font-size="11" font-weight="400" font-style="normal" 
>
</g>
</g>
</svg>
